<?xml version="1.0" encoding="iso-8859-1"?>
<!-- Generator: Adobe Illustrator 19.0.0, SVG Export Plug-In . SVG Version: 6.00 Build 0)  -->
<svg version="1.1" id="Layer_1" xmlns="http://www.w3.org/2000/svg" xmlns:xlink="http://www.w3.org/1999/xlink" x="0px" y="0px"
	 viewBox="0 0 512 512" style="enable-background:new 0 0 512 512;" xml:space="preserve">
<path style="fill:#C7C5CC;" d="M371.199,151.686c-0.829,0-1.671-0.101-2.512-0.311c-0.211-0.054-29.586-14.691-46.016-17.286
	c-19.147-3.022-39.443-16.644-40.298-17.223c-4.724-3.197-5.963-9.62-2.766-14.344c3.196-4.724,9.613-5.959,14.337-2.773l0,0
	c0.172,0.117,17.391,11.633,31.949,13.931c17.345,2.74,46.904,17.425,47.805,17.65c5.536,1.384,8.899,6.992,7.516,12.527
	C380.04,148.551,375.828,151.686,371.199,151.686z"/>
<path style="fill:#FFD92D;" d="M176.879,69.464l-12.902-55.476C162.296,6.844,167.717,0,175.056,0h104.631
	c7.268,0,12.675,6.72,11.118,13.821l-12.263,55.644H176.879z"/>
<path style="fill:#FFA81E;" d="M279.637,0H175.008c-7.337,0-12.757,6.846-11.081,13.989l1.266,5.354h50.237
	c26.391,0,46.017,24.344,40.359,50.12l0,0h22.705l12.266-55.638C292.317,6.723,286.909,0,279.637,0z"/>
<path style="fill:#956EC4;" d="M354.915,143.622l2.081,38.853l55.78,53.08l44.984-53.98l-46.783-48.582l-45.137-0.716
	C359.6,132.178,354.582,137.389,354.915,143.622z"/>
<path style="fill:#F8F8F8;" d="M282.908,172.883V104.52H173.579v68.363c-69.291,22.936-119.34,88.128-119.34,165.113
	c0,96.1,77.904,174.004,174.004,174.004s174.004-77.905,174.004-174.004C402.248,261.011,352.199,195.818,282.908,172.883z"/>
<path style="fill:#FF328F;" d="M98.927,260.443c-13.222,22.451-20.943,48.531-20.943,76.473
	c0,83.437,67.639,151.073,151.076,151.073s151.076-67.638,151.076-151.073c0-27.942-7.723-54.021-20.943-76.473H98.927z"/>
<path style="fill:#FF73B1;" d="M102.465,326.475c0-23.286,4.555-45.39,12.151-66.032H99.118
	c-13.222,22.451-20.943,48.531-20.943,76.473c0,64.763,40.829,119.849,98.092,141.332
	C131.379,442.839,102.465,388.083,102.465,326.475z"/>
<path style="fill:#E80D6B;" d="M359.868,260.443h-23.195c8.762,21.238,13.774,44.403,13.774,68.809
	c0,65.361-34.549,122.515-86.269,154.639c66.812-15.606,116.632-75.411,116.632-146.977
	C380.811,308.974,373.088,282.895,359.868,260.443z"/>
<path style="fill:#E1E1E4;" d="M290.65,104.153H165.837c-9.731,0-17.621-7.89-17.621-17.621l0,0c0-9.731,7.89-17.621,17.621-17.621
	H290.65c9.731,0,17.621,7.89,17.621,17.621l0,0C308.271,96.264,300.382,104.153,290.65,104.153z"/>
<g>
	<circle style="fill:#FF73B1;" cx="244.362" cy="210.961" r="18.355"/>
	<circle style="fill:#FF73B1;" cx="193.068" cy="228.949" r="13.95"/>
	<circle style="fill:#FF73B1;" cx="220.96" cy="165.08" r="13.992"/>
	<path style="fill:#FF73B1;" d="M309.08,309.615c-3.785-3.788-8.735-5.689-13.684-5.715l0.501-0.556
		c-0.263-4.45-1.829-7.945-5.24-11.355c-7.369-7.369-19.278-7.41-26.6-0.091c-7.317,7.319-7.275,19.227,0.095,26.595l-76.811,77.619
		c-7.596-7.592-19.863-7.633-27.402-0.094c-7.544,7.541-7.501,19.81,0.09,27.402c3.78,3.775,8.709,5.668,13.643,5.705l-0.505,0.562
		c0.269,4.45,1.882,7.948,5.292,11.359c7.369,7.369,19.278,7.409,26.6,0.091c7.317-7.319,7.275-19.227-0.095-26.596l76.811-77.617
		c7.596,7.591,19.858,7.634,27.402,0.092C316.719,329.474,316.676,317.207,309.08,309.615z"/>
</g>
<g>
</g>
<g>
</g>
<g>
</g>
<g>
</g>
<g>
</g>
<g>
</g>
<g>
</g>
<g>
</g>
<g>
</g>
<g>
</g>
<g>
</g>
<g>
</g>
<g>
</g>
<g>
</g>
<g>
</g>
</svg>
